<mxfile host="app.diagrams.net" modified="2023-12-26T03:12:05.498Z" agent="Mozilla/5.0 (Windows NT 10.0; Win64; x64) AppleWebKit/537.36 (KHTML, like Gecko) Chrome/119.0.0.0 Safari/537.36" version="22.1.11" etag="183V_FBB61iwqPjf3mpf" type="github">
  <diagram name="Страница — 1" id="T7qYxHpTB2XAXVFspHYq">
    <mxGraphModel>
      <root>
        <mxCell id="0" />
        <mxCell id="1" parent="0" />
      </root>
    </mxGraphModel>
  </diagram>
</mxfile>
